<svg version="1.1" id="Accuraty_Logo" xmlns="http://www.w3.org/2000/svg" x="0" y="0" viewBox="0 0 982.43 127.2" xml:space="preserve"><style>.st0{fill:#231f20}.st1{fill:#0767b1}</style><path class="st0" d="M137.36 14.64l-34.1 100.34h25.26l6.03-21.05h31.29l6.18 21.05h25.26l-34.1-100.34h-25.82zm2.95 59.65l5.76-19.51c1.82-6.32 4.06-17.26 4.06-17.26h.28s2.25 10.94 4.07 17.26l5.61 19.51h-19.78zM249.22 92.53c-18.52 0-28.35-15.3-28.35-30.18 0-14.45 9.13-28.63 28.35-28.63 13.89 0 25.12 10.24 25.12 10.24l11.37-18.52s-12.77-14.17-37.61-14.17c-30.17 0-52.62 22.45-52.62 51.64 0 29.75 21.19 52.07 52.62 52.07 26.24 0 40.42-16.84 40.42-16.84l-12.63-17.96c-.01 0-11.51 12.35-26.67 12.35zM367.95 80.18s-2.88 3.09-7.65 6.17c-4.77 3.09-11.44 6.17-19.01 6.17-9.26 0-16.35-3.82-21.12-9.51-4.77-5.68-7.23-13.23-7.23-20.67 0-7.23 2.28-14.38 6.97-19.73 4.68-5.35 11.77-8.89 21.38-8.89 6.95 0 13.23 2.56 17.77 5.12 4.54 2.56 7.35 5.12 7.35 5.12l5.68-9.26 5.68-9.26s-3.19-3.54-9.49-7.09-15.7-7.09-28.12-7.09c-15.09 0-28.25 5.61-37.63 14.88-9.39 9.26-15 22.17-15 36.77 0 14.87 5.3 27.89 14.53 37.19 9.23 9.3 22.39 14.88 38.1 14.88 13.12 0 23.23-4.21 30.05-8.42s10.37-8.42 10.37-8.42l-6.32-8.98-6.31-8.98zM445 76.39c0 10.52-6.87 16.14-17.4 16.14-10.53 0-17.41-5.61-17.41-16.14V12.96h-24.56V76.4c0 22.59 16.56 38.59 42.11 38.59 25.26 0 41.82-16 41.82-38.59V12.96H445v63.43zM598.41 12.96l-34 100.04-19.34-34.78c-2.38-4.21-3.79-6.03-3.79-6.03v-.29c9.97-5.06 15.02-16.7 15.02-27.37 0-14.6-7.16-24.84-18.52-29.19-4.35-1.69-9.26-2.39-19.51-2.39h-34.95V113.3h24.56V79.48h11.51l17.82 33.82h52.36l6.03-21.05h31.3l6.18 21.05h25.26l-34.1-100.35h-25.83zm-79.86 45.47h-10.67V34.01h8.28c12.35 0 15.16 4.49 15.16 12.07 0 8-4.91 12.35-12.77 12.35zm82.81 14.17l5.75-19.51c1.82-6.32 4.07-17.26 4.07-17.26h.28s2.25 10.95 4.07 17.26l5.61 19.51h-19.78zM792.63 12.96L781.4 37.1c-3.23 6.87-6.03 14.45-6.03 14.45h-.28s-2.81-7.58-6.03-14.45l-11.37-24.14H644.6v21.06h30.45v79.29h24.56v-79.3h30.45V13.48l32.83 58.7v41.12h24.56V72.18l33.12-59.23h-27.94z"/><g><path class="st1" d="M840.58 118.1h25.81L902.88 9.01h-25.82zM942.08 9.01h-29.33l31.33 54.62-31.31 54.57h29.36l31.3-54.55zM40.67 9.01L9 63.64l31.62 54.56h29.67L38.66 63.62 70.31 9.01z"/></g></svg>